PathFileType	4	(X/Y/Z)	C:\Users\86182\Documents\cortex\Trimmed_M3_L15.trc
DataRate	CameraRate	NumFrames	NumMarkers	Units	OrigDataRate	OrigDataStartFrame	OrigNumFrames
100.00	100.00	       70	2	mm	100.00	361	       901
Frame#	Time	gripper			box			
		X1	Y1	Z1	X2	Y2	Z2	

361	3.600	273.47537	149.81923	292.71017	274.61398	148.29764	156.85577	
362	3.610	273.54620	149.83543	292.74399	274.61649	148.24652	156.98459	
363	3.620	273.53400	149.79990	292.81458	274.52289	148.21603	157.16968	
364	3.630	273.42563	149.81004	292.87115	274.47543	148.29382	157.25839	
365	3.640	273.42383	149.83730	292.92987	274.44046	148.28246	157.35912	
366	3.650	273.34970	149.85292	292.95560	274.41302	148.30544	157.37701	
367	3.660	273.37234	149.85797	292.95758	274.40109	148.29169	157.37621	
368	3.670	273.37430	149.85117	292.95667	274.39346	148.29381	157.37912	
369	3.680	273.40063	149.85182	292.97867	274.41135	148.31119	157.38141	
370	3.690	273.41028	149.85706	292.97693	274.47342	148.29913	157.36653	
371	3.700	273.41833	149.86162	292.97455	274.41476	148.29324	157.37480	
372	3.710	273.44925	149.86775	293.01974	274.47165	148.29813	157.36888	
373	3.720	273.39877	149.85062	292.97995	274.44608	148.28735	157.36945	
374	3.730	273.43683	149.86880	292.98471	274.48199	148.25966	157.35606	
375	3.740	273.38437	149.84605	292.96698	274.47955	148.26389	157.35304	
376	3.750	273.41730	149.85014	292.94928	274.52115	148.23993	157.34264	
377	3.760	273.37302	149.84276	292.95538	274.49353	148.25948	157.34830	
378	3.770	273.38895	149.84644	292.95404	274.49161	148.25369	157.34488	
379	3.780	273.39752	149.83873	292.94519	274.47720	148.26706	157.35112	
380	3.790	273.40231	149.85678	292.95901	274.48322	148.26488	157.34938	
381	3.800	273.41592	149.86011	292.97592	274.49353	148.25948	157.34830	
382	3.810	273.39908	149.85524	292.95862	274.51901	148.27234	157.34555	
383	3.820	273.39447	149.83922	292.94644	274.53491	148.21268	157.33046	
384	3.830	273.43475	149.83258	292.92969	274.57370	148.18584	157.32281	
385	3.840	273.46545	149.79692	292.87738	274.54846	148.19258	157.32207	
386	3.850	273.44901	149.79788	292.87390	274.45679	148.11494	157.27412	
387	3.860	273.46927	149.79611	292.86313	274.42453	148.09508	157.25677	
388	3.870	273.41760	149.79854	292.84708	274.32248	148.07445	157.20265	
389	3.880	273.41931	149.77794	292.81674	274.32303	148.07693	157.19728	
390	3.890	273.46750	149.80502	292.83224	274.29837	148.06631	157.18846	
391	3.900	273.45517	149.80696	292.85623	274.37994	148.10277	157.21085	
392	3.910	273.45886	149.80203	292.86115	274.43552	148.11139	157.26514	
393	3.920	273.46866	149.79173	292.87006	274.44522	148.11217	157.27640	
394	3.930	273.46866	149.79173	292.87006	274.45642	148.11946	157.27365	
395	3.940	273.46866	149.79173	292.87006	274.44901	148.11462	157.27548	
396	3.950	273.46866	149.79173	292.87006	274.49301	148.12650	157.26665	
397	3.960	273.46866	149.79173	292.87006	274.47241	148.11551	157.27141	
398	3.970	273.46866	149.79173	292.87006	274.45276	148.11707	157.27455	
399	3.980	273.47028	149.79182	292.86887	274.45105	148.10440	157.26981	
400	3.990	273.49554	149.79208	292.85175	274.36816	148.10341	157.19328	
401	4.000	273.52374	149.79124	292.83429	274.36295	148.09184	157.21469	
402	4.010	273.48575	149.79451	292.85458	274.34705	148.08249	157.21617	
403	4.020	273.46432	149.78381	292.84741	274.35068	148.09514	157.18990	
404	4.030	273.47842	149.79222	292.86288	274.41367	148.10411	157.25339	
405	4.040	273.46866	149.79173	292.87006	274.46017	148.12190	157.27272	
406	4.050	273.46866	149.79173	292.87006	274.45279	148.09866	157.26369	
407	4.060	273.46866	149.79173	292.87006	274.50284	148.14726	157.26251	
408	4.070	273.46866	149.79173	292.87006	274.46017	148.12190	157.27272	
409	4.080	273.46866	149.79173	292.87006	274.41531	148.10413	157.24997	
410	4.090	273.47028	149.79182	292.86887	274.45020	148.11008	157.27150	
411	4.100	273.46866	149.79173	292.87006	274.38724	148.10265	157.22105	
412	4.110	273.46149	149.79788	292.86563	274.34705	148.08249	157.21617	
413	4.120	273.48367	149.79172	292.86014	274.37750	148.09154	157.23521	
414	4.130	273.46405	149.79907	292.86215	274.36646	148.08974	157.22467	
415	4.140	273.47723	149.79140	292.86490	274.42114	148.09326	157.23961	
416	4.150	273.46866	149.79173	292.87006	274.46564	148.10147	157.27423	
417	4.160	273.46866	149.79173	292.87006	274.44458	148.10297	157.26454	
418	4.170	273.46866	149.79173	292.87006	274.47601	148.09605	157.27312	
419	4.180	273.46866	149.79173	292.87006	274.47601	148.09605	157.27312	
420	4.190	273.46866	149.79173	292.87006	274.51276	148.12485	157.26350	
421	4.200	273.46866	149.79173	292.87006	274.46939	148.10393	157.27332	
422	4.210	273.46866	149.79173	292.87006	274.43149	148.10950	157.23625	
423	4.220	273.46277	149.79579	292.86792	274.40054	148.09940	157.23599	
424	4.230	273.47516	149.79207	292.86526	274.39746	148.11664	157.20044	
425	4.240	273.47028	149.79182	292.86887	274.40436	148.11365	157.21719	
426	4.250	273.45953	149.79562	292.87030	274.37674	148.09415	157.22775	
427	4.260	273.46866	149.79173	292.87006	274.41318	148.12717	157.19580	
428	4.270	273.46866	149.79173	292.87006	274.42389	148.10751	157.25885	
429	4.280	273.46866	149.79173	292.87006	274.41537	148.10565	157.25191	
430	4.290	273.46866	149.79173	292.87006	274.47275	148.11092	157.27190	
